#!OML:ASF C:\Vicon Data\Big\jianyuan-12\jianyuan\Session 1\Capture.male.ASF
:FULLY-SPECIFIED
:DEGREES
195
root -11.943736 17.453770 -10.407282 -4.212098 -40.191025 15.731552
lowerback -7.765285 -1.194470 -10.344347 
upperback 2.485557 -0.228884 -2.765512 
thorax 7.083210 -0.458800 2.841561 
lowerneck 2.544542 -10.803855 -7.510396 
upperneck -6.450247 -13.931197 16.545563 
head -0.554939 -7.178229 6.152970 
rclavicle 0.000000 0.000000 
rhumerus -39.107569 -29.341764 -76.868480 
rradius 34.718456 
rwrist 33.212107 
rhand -19.350903 -4.905718 
rfingers 0.000000 
rthumb 6.966454 -34.771124 
lclavicle 0.000000 0.000000 
lhumerus -32.096982 42.620867 67.324732 
lradius 25.459592 
lwrist -56.326943 
lhand -11.997832 6.420811 
lfingers 0.000000 
lthumb 14.059101 35.925236 
rfemur -35.499330 -22.305080 15.059691 
rtibia 76.969504 
rfoot -14.504075 -8.817279 
rtoes 1.023895 
lfemur -12.041686 -4.527682 -27.399804 
ltibia 19.432403 
lfoot -21.209642 4.810786 
ltoes -28.589269 
196
root -11.978554 17.443715 -10.354653 -4.162803 -40.568246 15.662280
lowerback -7.686457 -1.237837 -10.252875 
upperback 2.465120 -0.312647 -2.738949 
thorax 7.024303 -0.494195 2.808626 
lowerneck 2.573195 -10.703744 -7.601326 
upperneck -6.440049 -13.795947 16.706524 
head -0.553564 -7.113280 6.221259 
rclavicle 0.000000 0.000000 
rhumerus -39.332644 -29.530991 -76.611156 
rradius 34.600101 
rwrist 33.380320 
rhand -19.376565 -4.913600 
rfingers 0.000000 
rthumb 6.941639 -34.779767 
lclavicle 0.000000 0.000000 
lhumerus -31.476961 42.585449 67.583961 
lradius 25.495254 
lwrist -56.309837 
lhand -12.033388 6.211307 
lfingers 0.000000 
lthumb 14.024900 35.718154 
rfemur -36.351040 -22.254142 15.530347 
rtibia 76.609279 
rfoot -14.449004 -8.400626 
rtoes 1.022090 
lfemur -11.942165 -4.638728 -27.337306 
ltibia 19.712154 
lfoot -21.789746 5.151049 
ltoes -28.571515 
197
root -12.016504 17.438723 -10.297782 -4.151116 -40.982695 15.664002
lowerback -7.657621 -1.301322 -10.278709 
upperback 2.457682 -0.408180 -2.650623 
thorax 7.012698 -0.544846 2.903548 
lowerneck 2.471270 -10.625626 -7.791910 
upperneck -6.304301 -13.712748 16.743674 
head -0.490789 -7.062100 6.252493 
rclavicle 0.000000 0.000000 
rhumerus -39.509155 -29.521483 -76.327592 
rradius 34.546697 
rwrist 33.394396 
rhand -19.408540 -4.906930 
rfingers 0.000000 
rthumb 6.910763 -34.774124 
lclavicle 0.000000 0.000000 
lhumerus -30.782411 42.388105 68.094272 
lradius 25.605858 
lwrist -56.077391 
lhand -12.043340 6.308361 
lfingers 0.000000 
lthumb 14.015221 35.815854 
rfemur -37.184156 -22.062465 15.920710 
rtibia 76.093453 
rfoot -14.571091 -7.604484 
rtoes 0.579543 
lfemur -11.835981 -4.793335 -27.343477 
ltibia 20.016381 
lfoot -22.400556 5.542528 
ltoes -28.353816 
198
root -12.052290 17.432417 -10.243696 -4.069475 -41.397292 15.620130
lowerback -7.618287 -1.358462 -10.259779 
upperback 2.441897 -0.502444 -2.560005 
thorax 6.985124 -0.592247 2.976791 
lowerneck 2.299537 -10.549154 -7.804399 
upperneck -6.189296 -13.622513 16.606187 
head -0.450175 -7.005153 6.202433 
rclavicle 0.000000 0.000000 
rhumerus -39.686695 -29.726268 -75.974654 
rradius 34.473949 
rwrist 33.605620 
rhand -19.501877 -4.842740 
rfingers 0.000000 
rthumb 6.820698 -34.712857 
lclavicle 0.000000 0.000000 
lhumerus -30.009554 41.848552 68.747033 
lradius 25.819509 
lwrist -55.315075 
lhand -12.037259 6.340887 
lfingers 0.000000 
lthumb 14.021128 35.847998 
rfemur -38.062589 -21.714371 16.372624 
rtibia 75.487665 
rfoot -14.771244 -6.947945 
rtoes 0.519103 
lfemur -11.791397 -4.706225 -27.311344 
ltibia 20.287295 
lfoot -22.833525 5.747202 
ltoes -28.385820 
199
root -12.095500 17.426993 -10.192561 -4.036329 -41.840706 15.394864
lowerback -7.440420 -1.372523 -10.134306 
upperback 2.469072 -0.565912 -2.467291 
thorax 6.917565 -0.620031 2.998871 
lowerneck 2.247148 -10.478843 -7.708778 
upperneck -6.157541 -13.530376 16.448975 
head -0.462838 -6.955936 6.141251 
rclavicle 0.000000 0.000000 
rhumerus -39.858869 -30.019789 -75.650824 
rradius 34.305639 
rwrist 33.859245 
rhand -19.635151 -4.820829 
rfingers 0.000000 
rthumb 6.692004 -34.695113 
lclavicle 0.000000 0.000000 
lhumerus -29.199323 40.993300 69.441620 
lradius 26.085425 
lwrist -54.422248 
lhand -12.039886 6.493678 
lfingers 0.000000 
lthumb 14.018616 36.000985 
rfemur -38.682343 -21.324008 16.950737 
rtibia 74.807419 
rfoot -14.935764 -6.612238 
rtoes 0.583317 
lfemur -11.562032 -4.625613 -27.114351 
ltibia 20.548159 
lfoot -23.305645 6.014334 
ltoes -28.551678 
200
root -12.136918 17.417789 -10.139333 -4.045063 -42.271024 15.351990
lowerback -7.348329 -1.403419 -10.157469 
upperback 2.476711 -0.625492 -2.373830 
thorax 6.881820 -0.652539 3.103708 
lowerneck 2.274799 -10.425059 -7.701968 
upperneck -6.250725 -13.449949 16.411441 
head -0.507558 -6.919537 6.137895 
rclavicle 0.000000 0.000000 
rhumerus -40.032676 -30.143692 -75.337216 
rradius 34.217114 
rwrist 33.969801 
rhand -19.675296 -4.967323 
rfingers 0.000000 
rthumb 6.653293 -34.842797 
lclavicle 0.000000 0.000000 
lhumerus -28.498221 40.704323 69.935954 
lradius 26.254174 
lwrist -54.069603 
lhand -11.992015 6.498500 
lfingers 0.000000 
lthumb 14.064642 36.002586 
rfemur -39.356465 -20.968578 17.353151 
rtibia 74.071241 
rfoot -15.302242 -6.179016 
rtoes -0.115404 
lfemur -11.386474 -4.498548 -27.081786 
ltibia 20.761094 
lfoot -23.695610 6.263248 
ltoes -28.499841 
201
root -12.169237 17.411281 -10.083902 -4.166375 -42.642664 15.627901
lowerback -7.313069 -1.469137 -10.306207 
upperback 2.463849 -0.701219 -2.393461 
thorax 6.861449 -0.693538 3.155517 
lowerneck 2.101512 -10.332235 -7.693960 
upperneck -6.136446 -13.328436 16.426909 
head -0.459807 -6.849436 6.131467 
rclavicle 0.000000 0.000000 
rhumerus -40.207225 -30.334766 -75.049322 
rradius 34.147816 
rwrist 34.129328 
rhand -19.632775 -5.069610 
rfingers 0.000000 
rthumb 6.694327 -34.943779 
lclavicle 0.000000 0.000000 
lhumerus -27.794352 40.744821 70.217267 
lradius 26.287793 
lwrist -53.984520 
lhand -12.038145 6.312118 
lfingers 0.000000 
lthumb 14.020224 35.819265 
rfemur -40.159034 -20.696820 17.470812 
rtibia 73.318408 
rfoot -15.662850 -5.799623 
rtoes -1.704437 
lfemur -11.295474 -4.613661 -27.346283 
ltibia 20.934440 
lfoot -24.073596 6.679114 
ltoes -28.608773 
202
root -12.208329 17.404454 -10.032630 -4.223362 -43.073640 15.636495
lowerback -7.169221 -1.488647 -10.286536 
upperback 2.482991 -0.749788 -2.366831 
thorax 6.805329 -0.715874 3.168186 
lowerneck 1.967286 -10.281373 -7.538451 
upperneck -6.095848 -13.254917 16.310364 
head -0.454588 -6.807257 6.067001 
rclavicle 0.000000 0.000000 
rhumerus -40.393676 -30.711776 -74.718327 
rradius 34.050812 
rwrist 34.322936 
rhand -19.620703 -5.073665 
rfingers 0.000000 
rthumb 6.706007 -34.947471 
lclavicle 0.000000 0.000000 
lhumerus -27.013525 40.064252 70.773559 
lradius 26.522268 
lwrist -53.190324 
lhand -12.042063 6.365176 
lfingers 0.000000 
lthumb 14.016496 35.872609 
rfemur -40.750824 -20.226306 17.783921 
rtibia 72.451943 
rfoot -15.818070 -5.679598 
rtoes -0.985846 
lfemur -11.078110 -4.627071 -27.354359 
ltibia 21.094655 
lfoot -24.500921 7.031761 
ltoes -28.796652 
203
root -12.247593 17.398686 -9.982767 -4.236230 -43.526300 15.590674
lowerback -7.045869 -1.511068 -10.199224 
upperback 2.504936 -0.804613 -2.357613 
thorax 6.762761 -0.738642 3.123886 
lowerneck 1.940065 -10.205074 -7.401378 
upperneck -6.190758 -13.134089 16.269644 
head -0.504613 -6.750307 6.041293 
rclavicle 0.000000 0.000000 
rhumerus -40.450492 -30.936561 -74.570127 
rradius 33.933219 
rwrist 34.158547 
rhand -19.706465 -5.302660 
rfingers 0.000000 
rthumb 6.623226 -35.179050 
lclavicle 0.000000 0.000000 
lhumerus -26.294133 39.460445 71.182809 
lradius 26.758788 
lwrist -52.699026 
lhand -12.019791 6.368743 
lfingers 0.000000 
lthumb 14.037886 35.874675 
rfemur -41.316276 -19.755820 18.145517 
rtibia 71.492619 
rfoot -16.210820 -5.529130 
rtoes -0.990912 
lfemur -10.886954 -4.573179 -27.307498 
ltibia 21.262528 
lfoot -24.885875 7.300712 
ltoes -28.774497 
